<mxfile host="Electron" modified="2023-06-14T03:25:04.806Z" agent="Mozilla/5.0 (Macintosh; Intel Mac OS X 10_15_7) AppleWebKit/537.36 (KHTML, like Gecko) draw.io/21.3.7 Chrome/112.0.5615.204 Electron/24.5.0 Safari/537.36" etag="X1l3G0Q3k3GPpr71A02b" version="21.3.7" type="device" pages="2">
  <diagram name="顶层数据流图" id="rmabVYaUQiQAdUJXW821">
    <mxGraphModel dx="954" dy="727" grid="0" gridSize="10" guides="1" tooltips="1" connect="1" arrows="1" fold="1" page="1" pageScale="1" pageWidth="850" pageHeight="1100" math="0" shadow="0">
      <root>
        <mxCell id="0" />
        <mxCell id="1" parent="0" />
        <mxCell id="hjuC4tEZwUJjWh-8lK0K-15" style="edgeStyle=orthogonalEdgeStyle;rounded=0;orthogonalLoop=1;jettySize=auto;html=1;exitX=0.5;exitY=1;exitDx=0;exitDy=0;" edge="1" parent="1" source="hjuC4tEZwUJjWh-8lK0K-1" target="hjuC4tEZwUJjWh-8lK0K-3">
          <mxGeometry relative="1" as="geometry" />
        </mxCell>
        <mxCell id="hjuC4tEZwUJjWh-8lK0K-16" value="比赛结果" style="edgeLabel;html=1;align=center;verticalAlign=middle;resizable=0;points=[];" vertex="1" connectable="0" parent="hjuC4tEZwUJjWh-8lK0K-15">
          <mxGeometry x="-0.0182" y="1" relative="1" as="geometry">
            <mxPoint as="offset" />
          </mxGeometry>
        </mxCell>
        <mxCell id="hjuC4tEZwUJjWh-8lK0K-1" value="运动会管理系统" style="shape=ellipse;html=1;dashed=0;whiteSpace=wrap;perimeter=ellipsePerimeter;" vertex="1" parent="1">
          <mxGeometry x="360" y="360" width="120" height="50" as="geometry" />
        </mxCell>
        <mxCell id="hjuC4tEZwUJjWh-8lK0K-2" value="运动员" style="html=1;dashed=0;whiteSpace=wrap;" vertex="1" parent="1">
          <mxGeometry x="140" y="360" width="100" height="50" as="geometry" />
        </mxCell>
        <mxCell id="hjuC4tEZwUJjWh-8lK0K-3" value="发布台" style="html=1;dashed=0;whiteSpace=wrap;" vertex="1" parent="1">
          <mxGeometry x="360" y="520" width="120" height="50" as="geometry" />
        </mxCell>
        <mxCell id="hjuC4tEZwUJjWh-8lK0K-4" value="裁判" style="html=1;dashed=0;whiteSpace=wrap;" vertex="1" parent="1">
          <mxGeometry x="600" y="360" width="100" height="50" as="geometry" />
        </mxCell>
        <mxCell id="hjuC4tEZwUJjWh-8lK0K-6" value="" style="endArrow=classic;html=1;rounded=0;exitX=1;exitY=0.25;exitDx=0;exitDy=0;entryX=0;entryY=0;entryDx=0;entryDy=0;" edge="1" parent="1" source="hjuC4tEZwUJjWh-8lK0K-2" target="hjuC4tEZwUJjWh-8lK0K-1">
          <mxGeometry width="50" height="50" relative="1" as="geometry">
            <mxPoint x="190" y="390" as="sourcePoint" />
            <mxPoint x="240" y="340" as="targetPoint" />
          </mxGeometry>
        </mxCell>
        <mxCell id="hjuC4tEZwUJjWh-8lK0K-10" value="报名单" style="edgeLabel;html=1;align=center;verticalAlign=middle;resizable=0;points=[];" vertex="1" connectable="0" parent="hjuC4tEZwUJjWh-8lK0K-6">
          <mxGeometry x="-0.1717" y="-1" relative="1" as="geometry">
            <mxPoint x="13" y="-11" as="offset" />
          </mxGeometry>
        </mxCell>
        <mxCell id="hjuC4tEZwUJjWh-8lK0K-7" value="" style="endArrow=classic;html=1;rounded=0;exitX=1;exitY=0;exitDx=0;exitDy=0;entryX=0;entryY=0.25;entryDx=0;entryDy=0;" edge="1" parent="1" source="hjuC4tEZwUJjWh-8lK0K-1" target="hjuC4tEZwUJjWh-8lK0K-4">
          <mxGeometry width="50" height="50" relative="1" as="geometry">
            <mxPoint x="460" y="480" as="sourcePoint" />
            <mxPoint x="510" y="430" as="targetPoint" />
          </mxGeometry>
        </mxCell>
        <mxCell id="hjuC4tEZwUJjWh-8lK0K-13" value="参赛人员" style="edgeLabel;html=1;align=center;verticalAlign=middle;resizable=0;points=[];" vertex="1" connectable="0" parent="hjuC4tEZwUJjWh-8lK0K-7">
          <mxGeometry x="-0.0907" y="1" relative="1" as="geometry">
            <mxPoint x="5" y="-9" as="offset" />
          </mxGeometry>
        </mxCell>
        <mxCell id="hjuC4tEZwUJjWh-8lK0K-8" value="" style="endArrow=classic;html=1;rounded=0;entryX=1;entryY=0.75;entryDx=0;entryDy=0;exitX=0;exitY=1;exitDx=0;exitDy=0;" edge="1" parent="1" source="hjuC4tEZwUJjWh-8lK0K-1" target="hjuC4tEZwUJjWh-8lK0K-2">
          <mxGeometry width="50" height="50" relative="1" as="geometry">
            <mxPoint x="190" y="530" as="sourcePoint" />
            <mxPoint x="240" y="480" as="targetPoint" />
          </mxGeometry>
        </mxCell>
        <mxCell id="hjuC4tEZwUJjWh-8lK0K-11" value="运动员号码单" style="edgeLabel;html=1;align=center;verticalAlign=middle;resizable=0;points=[];" vertex="1" connectable="0" parent="hjuC4tEZwUJjWh-8lK0K-8">
          <mxGeometry x="-0.0466" relative="1" as="geometry">
            <mxPoint y="10" as="offset" />
          </mxGeometry>
        </mxCell>
        <mxCell id="hjuC4tEZwUJjWh-8lK0K-9" value="" style="endArrow=classic;html=1;rounded=0;entryX=1;entryY=1;entryDx=0;entryDy=0;exitX=0;exitY=0.75;exitDx=0;exitDy=0;" edge="1" parent="1" source="hjuC4tEZwUJjWh-8lK0K-4" target="hjuC4tEZwUJjWh-8lK0K-1">
          <mxGeometry width="50" height="50" relative="1" as="geometry">
            <mxPoint x="520" y="480" as="sourcePoint" />
            <mxPoint x="570" y="430" as="targetPoint" />
          </mxGeometry>
        </mxCell>
        <mxCell id="hjuC4tEZwUJjWh-8lK0K-12" value="比赛项目及成绩" style="edgeLabel;html=1;align=center;verticalAlign=middle;resizable=0;points=[];" vertex="1" connectable="0" parent="hjuC4tEZwUJjWh-8lK0K-9">
          <mxGeometry x="0.0466" relative="1" as="geometry">
            <mxPoint y="10" as="offset" />
          </mxGeometry>
        </mxCell>
      </root>
    </mxGraphModel>
  </diagram>
  <diagram id="3cD2oKNkIYevONy-YUWm" name="0层数据流图">
    <mxGraphModel dx="954" dy="727" grid="0" gridSize="10" guides="1" tooltips="1" connect="1" arrows="1" fold="1" page="0" pageScale="1" pageWidth="850" pageHeight="1100" math="0" shadow="0">
      <root>
        <mxCell id="0" />
        <mxCell id="1" parent="0" />
        <mxCell id="OOObdI8ZImBFy5UFEAhO-1" value="1. 报名" style="shape=ellipse;html=1;dashed=0;whiteSpace=wrap;perimeter=ellipsePerimeter;" vertex="1" parent="1">
          <mxGeometry x="160" y="280" width="120" height="50" as="geometry" />
        </mxCell>
        <mxCell id="OOObdI8ZImBFy5UFEAhO-2" value="2. 处理成绩" style="shape=ellipse;html=1;dashed=0;whiteSpace=wrap;perimeter=ellipsePerimeter;" vertex="1" parent="1">
          <mxGeometry x="560" y="280" width="120" height="50" as="geometry" />
        </mxCell>
        <mxCell id="OQ65jrBdutHtPyHSzhEr-1" value="" style="endArrow=classic;html=1;rounded=0;entryX=0;entryY=0.5;entryDx=0;entryDy=0;" edge="1" parent="1" target="OOObdI8ZImBFy5UFEAhO-1">
          <mxGeometry width="50" height="50" relative="1" as="geometry">
            <mxPoint x="80" y="305" as="sourcePoint" />
            <mxPoint x="130" y="310" as="targetPoint" />
          </mxGeometry>
        </mxCell>
        <mxCell id="OQ65jrBdutHtPyHSzhEr-2" value="报名单" style="edgeLabel;html=1;align=center;verticalAlign=middle;resizable=0;points=[];" vertex="1" connectable="0" parent="OQ65jrBdutHtPyHSzhEr-1">
          <mxGeometry x="-0.05" relative="1" as="geometry">
            <mxPoint y="-15" as="offset" />
          </mxGeometry>
        </mxCell>
        <mxCell id="OQ65jrBdutHtPyHSzhEr-3" value="" style="endArrow=classic;html=1;rounded=0;exitX=0.5;exitY=1;exitDx=0;exitDy=0;" edge="1" parent="1" source="OOObdI8ZImBFy5UFEAhO-1">
          <mxGeometry width="50" height="50" relative="1" as="geometry">
            <mxPoint x="280" y="280" as="sourcePoint" />
            <mxPoint x="220" y="400" as="targetPoint" />
          </mxGeometry>
        </mxCell>
        <mxCell id="OQ65jrBdutHtPyHSzhEr-4" value="号码单" style="edgeLabel;html=1;align=center;verticalAlign=middle;resizable=0;points=[];" vertex="1" connectable="0" parent="OQ65jrBdutHtPyHSzhEr-3">
          <mxGeometry x="0.0617" y="2" relative="1" as="geometry">
            <mxPoint x="-28" y="-1" as="offset" />
          </mxGeometry>
        </mxCell>
        <mxCell id="OQ65jrBdutHtPyHSzhEr-5" value="参赛人员报表" style="html=1;dashed=0;whiteSpace=wrap;shape=partialRectangle;right=0;left=0;" vertex="1" parent="1">
          <mxGeometry x="360" y="290" width="100" height="30" as="geometry" />
        </mxCell>
        <mxCell id="OQ65jrBdutHtPyHSzhEr-6" value="" style="endArrow=classic;html=1;rounded=0;exitX=1;exitY=0.5;exitDx=0;exitDy=0;entryX=0;entryY=0.5;entryDx=0;entryDy=0;" edge="1" parent="1" source="OOObdI8ZImBFy5UFEAhO-1" target="OQ65jrBdutHtPyHSzhEr-5">
          <mxGeometry width="50" height="50" relative="1" as="geometry">
            <mxPoint x="150" y="460" as="sourcePoint" />
            <mxPoint x="200" y="410" as="targetPoint" />
          </mxGeometry>
        </mxCell>
        <mxCell id="OQ65jrBdutHtPyHSzhEr-15" value="报名信息" style="edgeLabel;html=1;align=center;verticalAlign=middle;resizable=0;points=[];" vertex="1" connectable="0" parent="OQ65jrBdutHtPyHSzhEr-6">
          <mxGeometry x="-0.3024" y="-2" relative="1" as="geometry">
            <mxPoint y="-19" as="offset" />
          </mxGeometry>
        </mxCell>
        <mxCell id="OQ65jrBdutHtPyHSzhEr-7" value="" style="endArrow=classic;html=1;rounded=0;entryX=0.5;entryY=0;entryDx=0;entryDy=0;" edge="1" parent="1" target="OOObdI8ZImBFy5UFEAhO-2">
          <mxGeometry width="50" height="50" relative="1" as="geometry">
            <mxPoint x="620" y="200" as="sourcePoint" />
            <mxPoint x="470" y="300" as="targetPoint" />
          </mxGeometry>
        </mxCell>
        <mxCell id="OQ65jrBdutHtPyHSzhEr-8" value="成绩" style="edgeLabel;html=1;align=center;verticalAlign=middle;resizable=0;points=[];" vertex="1" connectable="0" parent="OQ65jrBdutHtPyHSzhEr-7">
          <mxGeometry x="-0.075" relative="1" as="geometry">
            <mxPoint x="-20" y="3" as="offset" />
          </mxGeometry>
        </mxCell>
        <mxCell id="OQ65jrBdutHtPyHSzhEr-9" value="比赛结果报表" style="html=1;dashed=0;whiteSpace=wrap;shape=partialRectangle;right=0;left=0;" vertex="1" parent="1">
          <mxGeometry x="730" y="290" width="100" height="30" as="geometry" />
        </mxCell>
        <mxCell id="OQ65jrBdutHtPyHSzhEr-11" value="" style="endArrow=classic;html=1;rounded=0;entryX=0;entryY=0.5;entryDx=0;entryDy=0;exitX=1;exitY=0.5;exitDx=0;exitDy=0;" edge="1" parent="1" source="OOObdI8ZImBFy5UFEAhO-2" target="OQ65jrBdutHtPyHSzhEr-9">
          <mxGeometry width="50" height="50" relative="1" as="geometry">
            <mxPoint x="540" y="430" as="sourcePoint" />
            <mxPoint x="590" y="380" as="targetPoint" />
          </mxGeometry>
        </mxCell>
        <mxCell id="OQ65jrBdutHtPyHSzhEr-12" value="" style="endArrow=classic;html=1;rounded=0;exitX=1;exitY=0.5;exitDx=0;exitDy=0;" edge="1" parent="1" source="OQ65jrBdutHtPyHSzhEr-5" target="OOObdI8ZImBFy5UFEAhO-2">
          <mxGeometry width="50" height="50" relative="1" as="geometry">
            <mxPoint x="410" y="310" as="sourcePoint" />
            <mxPoint x="460" y="260" as="targetPoint" />
          </mxGeometry>
        </mxCell>
        <mxCell id="OQ65jrBdutHtPyHSzhEr-16" value="参赛人员信息" style="edgeLabel;html=1;align=center;verticalAlign=middle;resizable=0;points=[];" vertex="1" connectable="0" parent="OQ65jrBdutHtPyHSzhEr-12">
          <mxGeometry x="-0.0615" y="3" relative="1" as="geometry">
            <mxPoint x="3" y="18" as="offset" />
          </mxGeometry>
        </mxCell>
        <mxCell id="OQ65jrBdutHtPyHSzhEr-13" value="" style="endArrow=classic;html=1;rounded=0;" edge="1" parent="1" target="OOObdI8ZImBFy5UFEAhO-1">
          <mxGeometry width="50" height="50" relative="1" as="geometry">
            <mxPoint x="220" y="200" as="sourcePoint" />
            <mxPoint x="170" y="150" as="targetPoint" />
          </mxGeometry>
        </mxCell>
        <mxCell id="OQ65jrBdutHtPyHSzhEr-14" value="比赛项目" style="edgeLabel;html=1;align=center;verticalAlign=middle;resizable=0;points=[];" vertex="1" connectable="0" parent="OQ65jrBdutHtPyHSzhEr-13">
          <mxGeometry x="-0.1107" y="1" relative="1" as="geometry">
            <mxPoint x="35" y="-6" as="offset" />
          </mxGeometry>
        </mxCell>
      </root>
    </mxGraphModel>
  </diagram>
</mxfile>
